# MagicaVoxel @ Ephtracy

# group
o 

# material
mtllib doska.mtl
usemtl palette

# normals
vn -1 0 0
vn 1 0 0
vn 0 0 1
vn 0 0 -1
vn 0 -1 0
vn 0 1 0

# texcoords
vt 0.826172 0.5
vt 0.845703 0.5
vt 0.958984 0.5

# verts
v -2.5 1.1 -0.3
v -2.5 1.1 -0.4
v -2.5 1.1 -0.5
v -2.5 1.1 -0.6
v -2.5 1.2 -0.3
v -2.5 1.2 -0.4
v -2.5 1.2 -0.5
v -2.5 1.2 -0.6
v -2.4 1.1 -0.2
v -2.4 1.1 -0.3
v -2.4 1.1 -0.6
v -2.4 1.1 -0.7
v -2.4 1.2 -0.2
v -2.4 1.2 -0.3
v -2.4 1.2 -0.6
v -2.4 1.2 -0.7
v -2.2 1.1 -0.1
v -2.2 1.1 -0.2
v -2.2 1.1 -0.7
v -2.2 1.1 -0.8
v -2.2 1.2 -0.1
v -2.2 1.2 -0.2
v -2.2 1.2 -0.7
v -2.2 1.2 -0.8
v -2 1.1 4.47035e-008
v -2 1.1 -0.1
v -2 1.1 -0.8
v -2 1.1 -0.9
v -2 1.2 4.47035e-008
v -2 1.2 -0.1
v -2 1.2 -0.8
v -2 1.2 -0.9
v -1.8 1.1 0.1
v -1.8 1.1 4.47035e-008
v -1.8 1.1 -0.9
v -1.8 1.1 -1
v -1.8 1.2 0.1
v -1.8 1.2 4.47035e-008
v -1.8 1.2 -0.9
v -1.8 1.2 -1
v 1.2 1 -0.4
v 1.2 1 -0.5
v 1.2 1.1 -0.4
v 1.2 1.1 -0.5
v 1.3 0.9 -0.4
v 1.3 0.9 -0.5
v 1.3 1 -0.4
v 1.3 1 -0.5
v 1.4 0.8 -0.4
v 1.4 0.8 -0.5
v 1.4 0.9 -0.4
v 1.4 0.9 -0.5
v 1.5 0.8 -0.4
v 1.5 0.8 -0.5
v 1.5 1.1 0.1
v 1.5 1.1 4.47035e-008
v 1.5 1.1 -0.4
v 1.5 1.1 -0.5
v 1.5 1.1 -0.9
v 1.5 1.1 -1
v 1.5 1.2 0.1
v 1.5 1.2 4.47035e-008
v 1.5 1.2 -0.9
v 1.5 1.2 -1
v 1.6 1.1 4.47035e-008
v 1.6 1.1 -0.1
v 1.6 1.1 -0.2
v 1.6 1.1 -0.7
v 1.6 1.1 -0.8
v 1.6 1.1 -0.9
v 1.6 1.2 4.47035e-008
v 1.6 1.2 -0.1
v 1.6 1.2 -0.2
v 1.6 1.2 -0.7
v 1.6 1.2 -0.8
v 1.6 1.2 -0.9
v 1.7 1.1 -0.2
v 1.7 1.1 -0.4
v 1.7 1.1 -0.5
v 1.7 1.1 -0.7
v 1.7 1.2 -0.2
v 1.7 1.2 -0.4
v 1.7 1.2 -0.5
v 1.7 1.2 -0.7
v 1.8 1.1 -0.4
v 1.8 1.1 -0.5
v 1.8 1.2 -0.4
v 1.8 1.2 -0.5
v -1.8 1.1 0.1
v -1.8 1.2 0.1
v 1.5 1.1 0.1
v 1.5 1.2 0.1
v -2 1.1 4.47035e-008
v -2 1.2 4.47035e-008
v -1.8 1.1 4.47035e-008
v -1.8 1.2 4.47035e-008
v 1.5 1.1 4.47035e-008
v 1.5 1.2 4.47035e-008
v 1.6 1.1 4.47035e-008
v 1.6 1.2 4.47035e-008
v -2.2 1.1 -0.1
v -2.2 1.2 -0.1
v -2 1.1 -0.1
v -2 1.2 -0.1
v -2.4 1.1 -0.2
v -2.4 1.2 -0.2
v -2.2 1.1 -0.2
v -2.2 1.2 -0.2
v 1.6 1.1 -0.2
v 1.6 1.2 -0.2
v 1.7 1.1 -0.2
v 1.7 1.2 -0.2
v -2.5 1.1 -0.3
v -2.5 1.2 -0.3
v -2.4 1.1 -0.3
v -2.4 1.2 -0.3
v 1.2 1 -0.4
v 1.2 1.1 -0.4
v 1.3 0.9 -0.4
v 1.3 1 -0.4
v 1.4 0.8 -0.4
v 1.4 0.9 -0.4
v 1.5 0.8 -0.4
v 1.5 1.1 -0.4
v 1.7 1.1 -0.4
v 1.7 1.2 -0.4
v 1.8 1.1 -0.4
v 1.8 1.2 -0.4
v 1.2 1 -0.5
v 1.2 1.1 -0.5
v 1.3 0.9 -0.5
v 1.3 1 -0.5
v 1.4 0.8 -0.5
v 1.4 0.9 -0.5
v 1.5 0.8 -0.5
v 1.5 1.1 -0.5
v 1.7 1.1 -0.5
v 1.7 1.2 -0.5
v 1.8 1.1 -0.5
v 1.8 1.2 -0.5
v -2.5 1.1 -0.6
v -2.5 1.2 -0.6
v -2.4 1.1 -0.6
v -2.4 1.2 -0.6
v -2.4 1.1 -0.7
v -2.4 1.2 -0.7
v -2.2 1.1 -0.7
v -2.2 1.2 -0.7
v 1.6 1.1 -0.7
v 1.6 1.2 -0.7
v 1.7 1.1 -0.7
v 1.7 1.2 -0.7
v -2.2 1.1 -0.8
v -2.2 1.2 -0.8
v -2 1.1 -0.8
v -2 1.2 -0.8
v -2 1.1 -0.9
v -2 1.2 -0.9
v -1.8 1.1 -0.9
v -1.8 1.2 -0.9
v 1.5 1.1 -0.9
v 1.5 1.2 -0.9
v 1.6 1.1 -0.9
v 1.6 1.2 -0.9
v -1.8 1.1 -1
v -1.8 1.2 -1
v 1.5 1.1 -1
v 1.5 1.2 -1
v 1.4 0.8 -0.4
v 1.5 0.8 -0.4
v 1.4 0.8 -0.5
v 1.5 0.8 -0.5
v 1.3 0.9 -0.4
v 1.4 0.9 -0.4
v 1.3 0.9 -0.5
v 1.4 0.9 -0.5
v 1.2 1 -0.4
v 1.3 1 -0.4
v 1.2 1 -0.5
v 1.3 1 -0.5
v -1.8 1.1 0.1
v 1.5 1.1 0.1
v -2 1.1 4.47035e-008
v -1.8 1.1 4.47035e-008
v 1.5 1.1 4.47035e-008
v 1.6 1.1 4.47035e-008
v -2.2 1.1 -0.1
v -2 1.1 -0.1
v 1.6 1.1 -0.1
v -2.4 1.1 -0.2
v -2.2 1.1 -0.2
v 1.6 1.1 -0.2
v 1.7 1.1 -0.2
v -2.5 1.1 -0.3
v -2.4 1.1 -0.3
v -2.5 1.1 -0.4
v 1.2 1.1 -0.4
v 1.5 1.1 -0.4
v 1.7 1.1 -0.4
v 1.8 1.1 -0.4
v -2.5 1.1 -0.5
v 1.2 1.1 -0.5
v 1.5 1.1 -0.5
v 1.7 1.1 -0.5
v 1.8 1.1 -0.5
v -2.5 1.1 -0.6
v -2.4 1.1 -0.6
v -2.4 1.1 -0.7
v -2.2 1.1 -0.7
v 1.6 1.1 -0.7
v 1.7 1.1 -0.7
v -2.2 1.1 -0.8
v -2 1.1 -0.8
v 1.6 1.1 -0.8
v -2 1.1 -0.9
v -1.8 1.1 -0.9
v 1.5 1.1 -0.9
v 1.6 1.1 -0.9
v -1.8 1.1 -1
v 1.5 1.1 -1
v -1.8 1.2 0.1
v 1.5 1.2 0.1
v -2 1.2 4.47035e-008
v -1.8 1.2 4.47035e-008
v 1.5 1.2 4.47035e-008
v 1.6 1.2 4.47035e-008
v -2.2 1.2 -0.1
v -2 1.2 -0.1
v 1.6 1.2 -0.1
v -2.4 1.2 -0.2
v -2.2 1.2 -0.2
v 1.6 1.2 -0.2
v 1.7 1.2 -0.2
v -2.5 1.2 -0.3
v -2.4 1.2 -0.3
v -2.5 1.2 -0.4
v 1.7 1.2 -0.4
v 1.8 1.2 -0.4
v -2.5 1.2 -0.5
v 1.7 1.2 -0.5
v 1.8 1.2 -0.5
v -2.5 1.2 -0.6
v -2.4 1.2 -0.6
v -2.4 1.2 -0.7
v -2.2 1.2 -0.7
v 1.6 1.2 -0.7
v 1.7 1.2 -0.7
v -2.2 1.2 -0.8
v -2 1.2 -0.8
v 1.6 1.2 -0.8
v -2 1.2 -0.9
v -1.8 1.2 -0.9
v 1.5 1.2 -0.9
v 1.6 1.2 -0.9
v -1.8 1.2 -1
v 1.5 1.2 -1

# faces
f 5/2/1 2/2/1 1/2/1
f 6/3/1 3/3/1 2/3/1
f 6/2/1 2/2/1 5/2/1
f 7/2/1 4/2/1 3/2/1
f 7/3/1 3/3/1 6/3/1
f 8/2/1 4/2/1 7/2/1
f 13/2/1 10/2/1 9/2/1
f 14/2/1 10/2/1 13/2/1
f 15/2/1 12/2/1 11/2/1
f 16/2/1 12/2/1 15/2/1
f 21/3/1 18/3/1 17/3/1
f 22/3/1 18/3/1 21/3/1
f 23/3/1 20/3/1 19/3/1
f 24/3/1 20/3/1 23/3/1
f 29/2/1 26/2/1 25/2/1
f 30/2/1 26/2/1 29/2/1
f 31/2/1 28/2/1 27/2/1
f 32/2/1 28/2/1 31/2/1
f 37/2/1 34/2/1 33/2/1
f 38/2/1 34/2/1 37/2/1
f 39/2/1 36/2/1 35/2/1
f 40/2/1 36/2/1 39/2/1
f 43/1/1 42/1/1 41/1/1
f 44/1/1 42/1/1 43/1/1
f 47/1/1 46/1/1 45/1/1
f 48/1/1 46/1/1 47/1/1
f 51/1/1 50/1/1 49/1/1
f 52/1/1 50/1/1 51/1/1
f 53/1/2 54/1/2 57/1/2
f 57/1/2 54/1/2 58/1/2
f 55/2/2 56/2/2 61/2/2
f 61/2/2 56/2/2 62/2/2
f 59/2/2 60/2/2 63/2/2
f 63/2/2 60/2/2 64/2/2
f 65/2/2 66/2/2 71/2/2
f 66/3/2 67/3/2 72/3/2
f 71/2/2 66/2/2 72/2/2
f 72/3/2 67/3/2 73/3/2
f 68/3/2 69/3/2 74/3/2
f 69/2/2 70/2/2 75/2/2
f 74/3/2 69/3/2 75/3/2
f 75/2/2 70/2/2 76/2/2
f 77/2/2 78/2/2 81/2/2
f 81/2/2 78/2/2 82/2/2
f 79/2/2 80/2/2 83/2/2
f 83/2/2 80/2/2 84/2/2
f 85/3/2 86/3/2 87/3/2
f 87/3/2 86/3/2 88/3/2
f 91/2/3 90/2/3 89/2/3
f 92/2/3 90/2/3 91/2/3
f 95/2/3 94/2/3 93/2/3
f 96/2/3 94/2/3 95/2/3
f 99/2/3 98/2/3 97/2/3
f 100/2/3 98/2/3 99/2/3
f 103/3/3 102/3/3 101/3/3
f 104/3/3 102/3/3 103/3/3
f 107/2/3 106/2/3 105/2/3
f 108/2/3 106/2/3 107/2/3
f 111/2/3 110/2/3 109/2/3
f 112/2/3 110/2/3 111/2/3
f 115/2/3 114/2/3 113/2/3
f 116/2/3 114/2/3 115/2/3
f 120/1/3 118/1/3 117/1/3
f 122/1/3 120/1/3 119/1/3
f 123/1/3 122/1/3 121/1/3
f 124/1/3 118/1/3 120/1/3
f 124/1/3 122/1/3 123/1/3
f 124/1/3 120/1/3 122/1/3
f 127/3/3 126/3/3 125/3/3
f 128/3/3 126/3/3 127/3/3
f 129/1/4 130/1/4 132/1/4
f 131/1/4 132/1/4 134/1/4
f 133/1/4 134/1/4 135/1/4
f 132/1/4 130/1/4 136/1/4
f 135/1/4 134/1/4 136/1/4
f 134/1/4 132/1/4 136/1/4
f 137/3/4 138/3/4 139/3/4
f 139/3/4 138/3/4 140/3/4
f 141/2/4 142/2/4 143/2/4
f 143/2/4 142/2/4 144/2/4
f 145/2/4 146/2/4 147/2/4
f 147/2/4 146/2/4 148/2/4
f 149/2/4 150/2/4 151/2/4
f 151/2/4 150/2/4 152/2/4
f 153/3/4 154/3/4 155/3/4
f 155/3/4 154/3/4 156/3/4
f 157/2/4 158/2/4 159/2/4
f 159/2/4 158/2/4 160/2/4
f 161/2/4 162/2/4 163/2/4
f 163/2/4 162/2/4 164/2/4
f 165/2/4 166/2/4 167/2/4
f 167/2/4 166/2/4 168/2/4
f 171/1/5 170/1/5 169/1/5
f 172/1/5 170/1/5 171/1/5
f 175/1/5 174/1/5 173/1/5
f 176/1/5 174/1/5 175/1/5
f 179/1/5 178/1/5 177/1/5
f 180/1/5 178/1/5 179/1/5
f 184/2/5 182/2/5 181/2/5
f 185/2/5 182/2/5 184/2/5
f 188/2/5 184/2/5 183/2/5
f 188/2/5 186/2/5 185/2/5
f 188/2/5 185/2/5 184/2/5
f 189/2/5 186/2/5 188/2/5
f 191/3/5 188/3/5 187/3/5
f 191/3/5 189/3/5 188/3/5
f 192/3/5 189/3/5 191/3/5
f 195/2/5 192/2/5 191/2/5
f 195/2/5 193/2/5 192/2/5
f 195/2/5 191/2/5 190/2/5
f 196/2/5 195/2/5 194/2/5
f 197/2/5 193/2/5 195/2/5
f 197/2/5 195/2/5 196/2/5
f 198/2/5 193/2/5 197/2/5
f 199/2/5 193/2/5 198/2/5
f 201/3/5 197/3/5 196/3/5
f 202/3/5 197/3/5 201/3/5
f 203/3/5 200/3/5 199/3/5
f 203/3/5 199/3/5 198/3/5
f 204/3/5 200/3/5 203/3/5
f 205/3/5 200/3/5 204/3/5
f 206/2/5 202/2/5 201/2/5
f 206/2/5 203/2/5 202/2/5
f 206/2/5 204/2/5 203/2/5
f 207/2/5 204/2/5 206/2/5
f 208/2/5 204/2/5 207/2/5
f 209/2/5 204/2/5 208/2/5
f 210/2/5 204/2/5 209/2/5
f 211/2/5 204/2/5 210/2/5
f 212/3/5 210/3/5 209/3/5
f 213/3/5 210/3/5 212/3/5
f 214/3/5 210/3/5 213/3/5
f 215/2/5 214/2/5 213/2/5
f 216/2/5 214/2/5 215/2/5
f 217/2/5 214/2/5 216/2/5
f 218/2/5 214/2/5 217/2/5
f 219/2/5 217/2/5 216/2/5
f 220/2/5 217/2/5 219/2/5
f 221/2/6 222/2/6 224/2/6
f 224/2/6 222/2/6 225/2/6
f 223/2/6 224/2/6 228/2/6
f 225/2/6 226/2/6 228/2/6
f 224/2/6 225/2/6 228/2/6
f 228/2/6 226/2/6 229/2/6
f 227/3/6 228/3/6 231/3/6
f 228/3/6 229/3/6 231/3/6
f 231/3/6 229/3/6 232/3/6
f 231/2/6 232/2/6 235/2/6
f 232/2/6 233/2/6 235/2/6
f 230/2/6 231/2/6 235/2/6
f 234/2/6 235/2/6 236/2/6
f 235/2/6 233/2/6 237/2/6
f 236/2/6 235/2/6 237/2/6
f 236/3/6 237/3/6 239/3/6
f 237/3/6 238/3/6 239/3/6
f 239/3/6 238/3/6 240/3/6
f 240/3/6 238/3/6 241/3/6
f 239/2/6 240/2/6 242/2/6
f 242/2/6 240/2/6 243/2/6
f 243/2/6 240/2/6 244/2/6
f 244/2/6 240/2/6 245/2/6
f 245/2/6 240/2/6 246/2/6
f 246/2/6 240/2/6 247/2/6
f 245/3/6 246/3/6 248/3/6
f 248/3/6 246/3/6 249/3/6
f 249/3/6 246/3/6 250/3/6
f 249/2/6 250/2/6 251/2/6
f 251/2/6 250/2/6 252/2/6
f 252/2/6 250/2/6 253/2/6
f 253/2/6 250/2/6 254/2/6
f 252/2/6 253/2/6 255/2/6
f 255/2/6 253/2/6 256/2/6
