# MagicaVoxel @ Ephtracy

# group
o 

# material
mtllib laguha.mtl
usemtl palette

# normals
vn -1 0 0
vn 1 0 0
vn 0 0 1
vn 0 0 -1
vn 0 -1 0
vn 0 1 0

# texcoords
vt 0.0214844 0.5
vt 0.841797 0.5
vt 0.892578 0.5
vt 0.958984 0.5
vt 0.994141 0.5

# verts
v -0.7 0 -0.1
v -0.7 0 -0.2
v -0.7 0.1 -0.1
v -0.7 0.1 -0.2
v -0.6 0 0.4
v -0.6 0 0.3
v -0.6 0 0
v -0.6 0 -0.1
v -0.6 0 -0.2
v -0.6 0 -0.3
v -0.6 0.1 0.4
v -0.6 0.1 0.3
v -0.6 0.1 0
v -0.6 0.1 -0.1
v -0.6 0.1 -0.2
v -0.6 0.1 -0.3
v -0.5 0 0.5
v -0.5 0 0.4
v -0.5 0 0.3
v -0.5 0 0.2
v -0.5 0 0.1
v -0.5 0 0
v -0.5 0 -0.3
v -0.5 0 -0.4
v -0.5 0.1 0.5
v -0.5 0.1 0.4
v -0.5 0.1 0.3
v -0.5 0.1 0
v -0.5 0.1 -0.3
v -0.5 0.3 0.4
v -0.5 0.3 0.3
v -0.5 0.3 0.2
v -0.5 0.3 0.1
v -0.5 0.4 0.4
v -0.5 0.4 0.3
v -0.5 0.4 0.2
v -0.5 0.4 -0.3
v -0.5 0.4 -0.4
v -0.5 0.5 0.3
v -0.5 0.5 0.2
v -0.5 0.5 -0.1
v -0.5 0.5 -0.3
v -0.5 0.6 0.4
v -0.5 0.6 0.3
v -0.5 0.6 0.2
v -0.5 0.7 0.3
v -0.5 0.7 0.2
v -0.5 0.7 0.1
v -0.5 0.7 -0.1
v -0.5 0.8 0.3
v -0.5 0.8 0.1
v -0.4 0 -0.4
v -0.4 0 -0.5
v -0.4 0.3 -0.4
v -0.4 0.3 -0.5
v -0.2 0 0.4
v -0.2 0 0.3
v -0.2 0.1 0.4
v -0.2 0.1 0.3
v -0.2 0.7 0.3
v -0.2 0.7 0.1
v -0.2 0.8 0.3
v -0.2 0.8 0.1
v -0.1 0 0.5
v -0.1 0 0.4
v -0.1 0.1 0.5
v -0.1 0.1 0.4
v -0.4 0 0.5
v -0.4 0 0.4
v -0.4 0.1 0.5
v -0.4 0.1 0.4
v -0.3 0 0.4
v -0.3 0 0.3
v -0.3 0.1 0.4
v -0.3 0.1 0.3
v -0.3 0.7 0.3
v -0.3 0.7 0.1
v -0.3 0.8 0.3
v -0.3 0.8 0.1
v -0.1 0 -0.4
v -0.1 0 -0.5
v -0.1 0.3 -0.4
v -0.1 0.3 -0.5
v 5.96046e-008 0 0.5
v 5.96046e-008 0 0.4
v 5.96046e-008 0 0.3
v 5.96046e-008 0 0.2
v 5.96046e-008 0 0.1
v 5.96046e-008 0 0
v 5.96046e-008 0 -0.3
v 5.96046e-008 0 -0.4
v 5.96046e-008 0.1 0.5
v 5.96046e-008 0.1 0.4
v 5.96046e-008 0.1 0.3
v 5.96046e-008 0.1 0
v 5.96046e-008 0.1 -0.3
v 5.96046e-008 0.3 0.4
v 5.96046e-008 0.3 0.3
v 5.96046e-008 0.3 0.2
v 5.96046e-008 0.3 0.1
v 5.96046e-008 0.4 0.4
v 5.96046e-008 0.4 0.3
v 5.96046e-008 0.4 0.2
v 5.96046e-008 0.4 -0.3
v 5.96046e-008 0.4 -0.4
v 5.96046e-008 0.5 0.3
v 5.96046e-008 0.5 0.2
v 5.96046e-008 0.5 -0.1
v 5.96046e-008 0.5 -0.3
v 5.96046e-008 0.6 0.4
v 5.96046e-008 0.6 0.3
v 5.96046e-008 0.6 0.2
v 5.96046e-008 0.7 0.3
v 5.96046e-008 0.7 0.2
v 5.96046e-008 0.7 0.1
v 5.96046e-008 0.7 -0.1
v 5.96046e-008 0.8 0.3
v 5.96046e-008 0.8 0.1
v 0.1 0 0.4
v 0.1 0 0.3
v 0.1 0 0
v 0.1 0 -0.1
v 0.1 0 -0.2
v 0.1 0 -0.3
v 0.1 0.1 0.4
v 0.1 0.1 0.3
v 0.1 0.1 0
v 0.1 0.1 -0.1
v 0.1 0.1 -0.2
v 0.1 0.1 -0.3
v 0.2 0 -0.1
v 0.2 0 -0.2
v 0.2 0.1 -0.1
v 0.2 0.1 -0.2
v -0.5 0 0.5
v -0.5 0.1 0.5
v -0.4 0 0.5
v -0.4 0.1 0.5
v -0.1 0 0.5
v -0.1 0.1 0.5
v 5.96046e-008 0 0.5
v 5.96046e-008 0.1 0.5
v -0.6 0 0.4
v -0.6 0.1 0.4
v -0.5 0 0.4
v -0.5 0.1 0.4
v -0.5 0.3 0.4
v -0.5 0.4 0.4
v -0.5 0.6 0.4
v -0.4 0 0.4
v -0.4 0.1 0.4
v -0.3 0 0.4
v -0.3 0.1 0.4
v -0.2 0 0.4
v -0.2 0.1 0.4
v -0.1 0 0.4
v -0.1 0.1 0.4
v 5.96046e-008 0 0.4
v 5.96046e-008 0.1 0.4
v 5.96046e-008 0.3 0.4
v 5.96046e-008 0.4 0.4
v 5.96046e-008 0.6 0.4
v 0.1 0 0.4
v 0.1 0.1 0.4
v -0.5 0.1 0.3
v -0.5 0.3 0.3
v -0.5 0.6 0.3
v -0.5 0.7 0.3
v -0.5 0.8 0.3
v -0.4 0.1 0.3
v -0.4 0.3 0.3
v -0.4 0.6 0.3
v -0.4 0.7 0.3
v -0.3 0 0.3
v -0.3 0.1 0.3
v -0.3 0.6 0.3
v -0.3 0.7 0.3
v -0.3 0.8 0.3
v -0.2 0 0.3
v -0.2 0.1 0.3
v -0.2 0.6 0.3
v -0.2 0.7 0.3
v -0.2 0.8 0.3
v -0.1 0.1 0.3
v -0.1 0.3 0.3
v -0.1 0.6 0.3
v -0.1 0.7 0.3
v 5.96046e-008 0.1 0.3
v 5.96046e-008 0.3 0.3
v 5.96046e-008 0.6 0.3
v 5.96046e-008 0.7 0.3
v 5.96046e-008 0.8 0.3
v -0.5 0 0.1
v -0.5 0.3 0.1
v 5.96046e-008 0 0.1
v 5.96046e-008 0.3 0.1
v -0.6 0 0
v -0.6 0.1 0
v -0.5 0 0
v -0.5 0.1 0
v 5.96046e-008 0 0
v 5.96046e-008 0.1 0
v 0.1 0 0
v 0.1 0.1 0
v -0.7 0 -0.1
v -0.7 0.1 -0.1
v -0.6 0 -0.1
v -0.6 0.1 -0.1
v 0.1 0 -0.1
v 0.1 0.1 -0.1
v 0.2 0 -0.1
v 0.2 0.1 -0.1
v -0.6 0 0.3
v -0.6 0.1 0.3
v -0.5 0 0.3
v -0.5 0.1 0.3
v 5.96046e-008 0 0.3
v 5.96046e-008 0.1 0.3
v 0.1 0 0.3
v 0.1 0.1 0.3
v -0.5 0 0.2
v -0.5 0.3 0.2
v -0.4 0.1 0.2
v -0.4 0.3 0.2
v -0.1 0.1 0.2
v -0.1 0.3 0.2
v 5.96046e-008 0 0.2
v 5.96046e-008 0.3 0.2
v -0.5 0.7 0.1
v -0.5 0.8 0.1
v -0.3 0.7 0.1
v -0.3 0.8 0.1
v -0.2 0.7 0.1
v -0.2 0.8 0.1
v 5.96046e-008 0.7 0.1
v 5.96046e-008 0.8 0.1
v -0.5 0.5 -0.1
v -0.5 0.7 -0.1
v 5.96046e-008 0.5 -0.1
v 5.96046e-008 0.7 -0.1
v -0.7 0 -0.2
v -0.7 0.1 -0.2
v -0.6 0 -0.2
v -0.6 0.1 -0.2
v 0.1 0 -0.2
v 0.1 0.1 -0.2
v 0.2 0 -0.2
v 0.2 0.1 -0.2
v -0.6 0 -0.3
v -0.6 0.1 -0.3
v -0.5 0 -0.3
v -0.5 0.1 -0.3
v -0.5 0.4 -0.3
v -0.5 0.5 -0.3
v 5.96046e-008 0 -0.3
v 5.96046e-008 0.1 -0.3
v 5.96046e-008 0.4 -0.3
v 5.96046e-008 0.5 -0.3
v 0.1 0 -0.3
v 0.1 0.1 -0.3
v -0.5 0 -0.4
v -0.5 0.4 -0.4
v -0.4 0 -0.4
v -0.4 0.3 -0.4
v -0.1 0 -0.4
v -0.1 0.3 -0.4
v 5.96046e-008 0 -0.4
v 5.96046e-008 0.4 -0.4
v -0.4 0 -0.5
v -0.4 0.3 -0.5
v -0.1 0 -0.5
v -0.1 0.3 -0.5
v -0.5 0 0.5
v -0.4 0 0.5
v -0.1 0 0.5
v 5.96046e-008 0 0.5
v -0.6 0 0.4
v -0.5 0 0.4
v -0.4 0 0.4
v -0.3 0 0.4
v -0.2 0 0.4
v -0.1 0 0.4
v 5.96046e-008 0 0.4
v 0.1 0 0.4
v -0.6 0 0.3
v -0.5 0 0.3
v -0.3 0 0.3
v -0.2 0 0.3
v 5.96046e-008 0 0.3
v 0.1 0 0.3
v -0.5 0 0.2
v 5.96046e-008 0 0.2
v -0.5 0 0.1
v 5.96046e-008 0 0.1
v -0.6 0 0
v -0.5 0 0
v 5.96046e-008 0 0
v 0.1 0 0
v -0.7 0 -0.1
v -0.6 0 -0.1
v 0.1 0 -0.1
v 0.2 0 -0.1
v -0.7 0 -0.2
v -0.6 0 -0.2
v 0.1 0 -0.2
v 0.2 0 -0.2
v -0.6 0 -0.3
v -0.5 0 -0.3
v 5.96046e-008 0 -0.3
v 0.1 0 -0.3
v -0.5 0 -0.4
v -0.4 0 -0.4
v -0.1 0 -0.4
v 5.96046e-008 0 -0.4
v -0.4 0 -0.5
v -0.1 0 -0.5
v -0.5 0.3 0.4
v 5.96046e-008 0.3 0.4
v -0.5 0.3 0.3
v -0.4 0.3 0.3
v -0.1 0.3 0.3
v 5.96046e-008 0.3 0.3
v -0.5 0.3 0.2
v -0.4 0.3 0.2
v -0.1 0.3 0.2
v 5.96046e-008 0.3 0.2
v -0.5 0.3 0.1
v 5.96046e-008 0.3 0.1
v -0.5 0.1 0.5
v -0.4 0.1 0.5
v -0.1 0.1 0.5
v 5.96046e-008 0.1 0.5
v -0.6 0.1 0.4
v -0.5 0.1 0.4
v -0.4 0.1 0.4
v -0.3 0.1 0.4
v -0.2 0.1 0.4
v -0.1 0.1 0.4
v 5.96046e-008 0.1 0.4
v 0.1 0.1 0.4
v -0.6 0.1 0.3
v -0.5 0.1 0.3
v -0.4 0.1 0.3
v -0.3 0.1 0.3
v -0.2 0.1 0.3
v -0.1 0.1 0.3
v 5.96046e-008 0.1 0.3
v 0.1 0.1 0.3
v -0.6 0.1 0
v -0.5 0.1 0
v 5.96046e-008 0.1 0
v 0.1 0.1 0
v -0.7 0.1 -0.1
v -0.6 0.1 -0.1
v 0.1 0.1 -0.1
v 0.2 0.1 -0.1
v -0.7 0.1 -0.2
v -0.6 0.1 -0.2
v 0.1 0.1 -0.2
v 0.2 0.1 -0.2
v -0.6 0.1 -0.3
v -0.5 0.1 -0.3
v 5.96046e-008 0.1 -0.3
v 0.1 0.1 -0.3
v -0.4 0.3 -0.4
v -0.1 0.3 -0.4
v -0.4 0.3 -0.5
v -0.1 0.3 -0.5
v -0.5 0.4 -0.3
v 5.96046e-008 0.4 -0.3
v -0.5 0.4 -0.4
v 5.96046e-008 0.4 -0.4
v -0.5 0.5 -0.1
v 5.96046e-008 0.5 -0.1
v -0.5 0.5 -0.3
v 5.96046e-008 0.5 -0.3
v -0.5 0.6 0.4
v 5.96046e-008 0.6 0.4
v -0.5 0.6 0.3
v -0.4 0.6 0.3
v -0.3 0.6 0.3
v -0.2 0.6 0.3
v -0.1 0.6 0.3
v 5.96046e-008 0.6 0.3
v -0.3 0.7 0.3
v -0.2 0.7 0.3
v -0.5 0.7 0.1
v -0.3 0.7 0.1
v -0.2 0.7 0.1
v 5.96046e-008 0.7 0.1
v -0.5 0.7 -0.1
v 5.96046e-008 0.7 -0.1
v -0.5 0.8 0.3
v -0.3 0.8 0.3
v -0.2 0.8 0.3
v 5.96046e-008 0.8 0.3
v -0.5 0.8 0.1
v -0.3 0.8 0.1
v -0.2 0.8 0.1
v 5.96046e-008 0.8 0.1

# faces
f 3/3/1 2/3/1 1/3/1
f 4/3/1 2/3/1 3/3/1
f 11/3/1 6/3/1 5/3/1
f 12/3/1 6/3/1 11/3/1
f 13/3/1 8/3/1 7/3/1
f 14/3/1 8/3/1 13/3/1
f 15/3/1 10/3/1 9/3/1
f 16/3/1 10/3/1 15/3/1
f 25/3/1 18/3/1 17/3/1
f 26/3/1 18/3/1 25/3/1
f 27/3/1 20/3/1 19/3/1
f 28/3/1 22/3/1 21/3/1
f 29/3/1 24/3/1 23/3/1
f 31/3/1 20/3/1 27/3/1
f 32/3/1 20/3/1 31/3/1
f 33/3/1 28/3/1 21/3/1
f 33/3/1 29/3/1 28/3/1
f 34/1/1 31/1/1 30/1/1
f 35/3/1 32/3/1 31/3/1
f 35/1/1 31/1/1 34/1/1
f 35/3/1 33/3/1 32/3/1
f 36/3/1 33/3/1 35/3/1
f 37/3/1 29/3/1 33/3/1
f 37/3/1 33/3/1 36/3/1
f 37/3/1 24/3/1 29/3/1
f 38/3/1 24/3/1 37/3/1
f 39/2/1 36/2/1 35/2/1
f 39/3/1 35/3/1 34/3/1
f 40/3/1 37/3/1 36/3/1
f 40/2/1 36/2/1 39/2/1
f 41/3/1 37/3/1 40/3/1
f 42/3/1 37/3/1 41/3/1
f 43/3/1 39/3/1 34/3/1
f 43/3/1 40/3/1 39/3/1
f 43/3/1 41/3/1 40/3/1
f 44/3/1 41/3/1 43/3/1
f 45/3/1 41/3/1 44/3/1
f 46/4/1 45/4/1 44/4/1
f 47/3/1 41/3/1 45/3/1
f 47/4/1 45/4/1 46/4/1
f 48/3/1 41/3/1 47/3/1
f 49/3/1 41/3/1 48/3/1
f 50/3/1 47/3/1 46/3/1
f 50/3/1 48/3/1 47/3/1
f 51/3/1 48/3/1 50/3/1
f 54/3/1 53/3/1 52/3/1
f 55/3/1 53/3/1 54/3/1
f 58/3/1 57/3/1 56/3/1
f 59/3/1 57/3/1 58/3/1
f 62/3/1 61/3/1 60/3/1
f 63/3/1 61/3/1 62/3/1
f 66/3/1 65/3/1 64/3/1
f 67/3/1 65/3/1 66/3/1
f 68/3/2 69/3/2 70/3/2
f 70/3/2 69/3/2 71/3/2
f 72/3/2 73/3/2 74/3/2
f 74/3/2 73/3/2 75/3/2
f 76/3/2 77/3/2 78/3/2
f 78/3/2 77/3/2 79/3/2
f 80/3/2 81/3/2 82/3/2
f 82/3/2 81/3/2 83/3/2
f 84/3/2 85/3/2 92/3/2
f 92/3/2 85/3/2 93/3/2
f 86/3/2 87/3/2 94/3/2
f 88/3/2 89/3/2 95/3/2
f 90/3/2 91/3/2 96/3/2
f 94/3/2 87/3/2 98/3/2
f 98/3/2 87/3/2 99/3/2
f 88/3/2 95/3/2 100/3/2
f 95/3/2 96/3/2 100/3/2
f 97/1/2 98/1/2 101/1/2
f 98/3/2 99/3/2 102/3/2
f 101/1/2 98/1/2 102/1/2
f 99/3/2 100/3/2 102/3/2
f 102/3/2 100/3/2 103/3/2
f 100/3/2 96/3/2 104/3/2
f 103/3/2 100/3/2 104/3/2
f 96/3/2 91/3/2 104/3/2
f 104/3/2 91/3/2 105/3/2
f 102/2/2 103/2/2 106/2/2
f 101/3/2 102/3/2 106/3/2
f 103/3/2 104/3/2 107/3/2
f 106/2/2 103/2/2 107/2/2
f 107/3/2 104/3/2 108/3/2
f 108/3/2 104/3/2 109/3/2
f 101/3/2 106/3/2 110/3/2
f 106/3/2 107/3/2 110/3/2
f 107/3/2 108/3/2 110/3/2
f 110/3/2 108/3/2 111/3/2
f 111/3/2 108/3/2 112/3/2
f 111/4/2 112/4/2 113/4/2
f 112/3/2 108/3/2 114/3/2
f 113/4/2 112/4/2 114/4/2
f 114/3/2 108/3/2 115/3/2
f 115/3/2 108/3/2 116/3/2
f 113/3/2 114/3/2 117/3/2
f 114/3/2 115/3/2 117/3/2
f 117/3/2 115/3/2 118/3/2
f 119/3/2 120/3/2 125/3/2
f 125/3/2 120/3/2 126/3/2
f 121/3/2 122/3/2 127/3/2
f 127/3/2 122/3/2 128/3/2
f 123/3/2 124/3/2 129/3/2
f 129/3/2 124/3/2 130/3/2
f 131/3/2 132/3/2 133/3/2
f 133/3/2 132/3/2 134/3/2
f 137/3/3 136/3/3 135/3/3
f 138/3/3 136/3/3 137/3/3
f 141/3/3 140/3/3 139/3/3
f 142/3/3 140/3/3 141/3/3
f 145/3/3 144/3/3 143/3/3
f 146/3/3 144/3/3 145/3/3
f 152/3/3 151/3/3 150/3/3
f 153/3/3 151/3/3 152/3/3
f 156/3/3 155/3/3 154/3/3
f 157/3/3 155/3/3 156/3/3
f 160/1/3 148/1/3 147/1/3
f 161/3/3 149/3/3 148/3/3
f 161/1/3 148/1/3 160/1/3
f 162/3/3 149/3/3 161/3/3
f 163/3/3 159/3/3 158/3/3
f 164/3/3 159/3/3 163/3/3
f 170/3/3 166/3/3 165/3/3
f 171/3/3 166/3/3 170/3/3
f 172/4/3 168/4/3 167/4/3
f 173/3/3 169/3/3 168/3/3
f 173/4/3 168/4/3 172/4/3
f 175/1/3 171/1/3 170/1/3
f 176/5/3 173/5/3 172/5/3
f 177/3/3 169/3/3 173/3/3
f 177/5/3 173/5/3 176/5/3
f 178/3/3 169/3/3 177/3/3
f 179/3/3 175/3/3 174/3/3
f 180/1/3 171/1/3 175/1/3
f 180/3/3 175/3/3 179/3/3
f 181/3/3 177/3/3 176/3/3
f 182/3/3 177/3/3 181/3/3
f 184/1/3 171/1/3 180/1/3
f 185/1/3 171/1/3 184/1/3
f 186/5/3 182/5/3 181/5/3
f 187/3/3 183/3/3 182/3/3
f 187/5/3 182/5/3 186/5/3
f 188/3/3 185/3/3 184/3/3
f 189/3/3 185/3/3 188/3/3
f 190/4/3 187/4/3 186/4/3
f 191/3/3 183/3/3 187/3/3
f 191/4/3 187/4/3 190/4/3
f 192/3/3 183/3/3 191/3/3
f 195/3/3 194/3/3 193/3/3
f 196/3/3 194/3/3 195/3/3
f 199/3/3 198/3/3 197/3/3
f 200/3/3 198/3/3 199/3/3
f 203/3/3 202/3/3 201/3/3
f 204/3/3 202/3/3 203/3/3
f 207/3/3 206/3/3 205/3/3
f 208/3/3 206/3/3 207/3/3
f 211/3/3 210/3/3 209/3/3
f 212/3/3 210/3/3 211/3/3
f 213/3/4 214/3/4 215/3/4
f 215/3/4 214/3/4 216/3/4
f 217/3/4 218/3/4 219/3/4
f 219/3/4 218/3/4 220/3/4
f 221/3/4 222/3/4 223/3/4
f 223/3/4 222/3/4 224/3/4
f 221/3/4 223/3/4 225/3/4
f 223/1/4 224/1/4 225/1/4
f 225/1/4 224/1/4 226/1/4
f 221/3/4 225/3/4 227/3/4
f 225/3/4 226/3/4 227/3/4
f 227/3/4 226/3/4 228/3/4
f 229/3/4 230/3/4 231/3/4
f 231/3/4 230/3/4 232/3/4
f 233/3/4 234/3/4 235/3/4
f 235/3/4 234/3/4 236/3/4
f 237/3/4 238/3/4 239/3/4
f 239/3/4 238/3/4 240/3/4
f 241/3/4 242/3/4 243/3/4
f 243/3/4 242/3/4 244/3/4
f 245/3/4 246/3/4 247/3/4
f 247/3/4 246/3/4 248/3/4
f 249/3/4 250/3/4 251/3/4
f 251/3/4 250/3/4 252/3/4
f 253/3/4 254/3/4 257/3/4
f 257/3/4 254/3/4 258/3/4
f 255/3/4 256/3/4 259/3/4
f 259/3/4 256/3/4 260/3/4
f 261/3/4 262/3/4 263/3/4
f 263/3/4 262/3/4 264/3/4
f 264/3/4 262/3/4 266/3/4
f 265/3/4 266/3/4 267/3/4
f 266/3/4 262/3/4 268/3/4
f 267/3/4 266/3/4 268/3/4
f 269/3/4 270/3/4 271/3/4
f 271/3/4 270/3/4 272/3/4
f 278/3/5 274/3/5 273/3/5
f 279/3/5 274/3/5 278/3/5
f 282/3/5 276/3/5 275/3/5
f 283/3/5 276/3/5 282/3/5
f 285/3/5 280/3/5 279/3/5
f 285/3/5 278/3/5 277/3/5
f 285/3/5 279/3/5 278/3/5
f 286/3/5 280/3/5 285/3/5
f 287/3/5 280/3/5 286/3/5
f 288/3/5 284/3/5 283/3/5
f 288/3/5 283/3/5 282/3/5
f 288/3/5 282/3/5 281/3/5
f 289/3/5 284/3/5 288/3/5
f 290/3/5 284/3/5 289/3/5
f 291/3/5 287/3/5 286/3/5
f 291/3/5 289/3/5 288/3/5
f 291/3/5 288/3/5 287/3/5
f 292/3/5 289/3/5 291/3/5
f 296/3/5 294/3/5 293/3/5
f 297/3/5 294/3/5 296/3/5
f 300/3/5 297/3/5 296/3/5
f 300/3/5 298/3/5 297/3/5
f 300/3/5 296/3/5 295/3/5
f 301/3/5 298/3/5 300/3/5
f 303/3/5 301/3/5 300/3/5
f 303/3/5 302/3/5 301/3/5
f 303/3/5 300/3/5 299/3/5
f 304/3/5 302/3/5 303/3/5
f 305/3/5 302/3/5 304/3/5
f 306/3/5 302/3/5 305/3/5
f 307/3/5 305/3/5 304/3/5
f 308/3/5 305/3/5 307/3/5
f 309/3/5 305/3/5 308/3/5
f 310/3/5 305/3/5 309/3/5
f 311/3/5 309/3/5 308/3/5
f 312/3/5 309/3/5 311/3/5
f 313/3/5 309/3/5 312/3/5
f 314/3/5 309/3/5 313/3/5
f 315/3/5 313/3/5 312/3/5
f 316/3/5 313/3/5 315/3/5
f 319/1/5 318/1/5 317/1/5
f 320/1/5 318/1/5 319/1/5
f 321/1/5 318/1/5 320/1/5
f 322/1/5 318/1/5 321/1/5
f 327/3/5 324/3/5 323/3/5
f 327/3/5 326/3/5 325/3/5
f 327/3/5 325/3/5 324/3/5
f 328/3/5 326/3/5 327/3/5
f 329/3/6 330/3/6 334/3/6
f 334/3/6 330/3/6 335/3/6
f 331/3/6 332/3/6 338/3/6
f 338/3/6 332/3/6 339/3/6
f 335/3/6 336/3/6 341/3/6
f 333/3/6 334/3/6 341/3/6
f 334/3/6 335/3/6 341/3/6
f 341/3/6 336/3/6 342/3/6
f 342/3/6 336/3/6 343/3/6
f 343/3/6 336/3/6 344/3/6
f 339/3/6 340/3/6 345/3/6
f 338/3/6 339/3/6 345/3/6
f 337/3/6 338/3/6 345/3/6
f 345/3/6 340/3/6 346/3/6
f 346/3/6 340/3/6 347/3/6
f 347/3/6 340/3/6 348/3/6
f 349/3/6 350/3/6 354/3/6
f 351/3/6 352/3/6 355/3/6
f 353/3/6 354/3/6 357/3/6
f 354/3/6 350/3/6 358/3/6
f 357/3/6 354/3/6 358/3/6
f 351/3/6 355/3/6 359/3/6
f 355/3/6 356/3/6 359/3/6
f 359/3/6 356/3/6 360/3/6
f 358/3/6 350/3/6 361/3/6
f 361/3/6 350/3/6 362/3/6
f 351/3/6 359/3/6 363/3/6
f 363/3/6 359/3/6 364/3/6
f 365/3/6 366/3/6 367/3/6
f 367/3/6 366/3/6 368/3/6
f 369/3/6 370/3/6 371/3/6
f 371/3/6 370/3/6 372/3/6
f 373/3/6 374/3/6 375/3/6
f 375/3/6 374/3/6 376/3/6
f 377/3/6 378/3/6 379/3/6
f 379/3/6 378/3/6 380/3/6
f 380/3/6 378/3/6 381/3/6
f 381/3/6 378/3/6 382/3/6
f 382/3/6 378/3/6 383/3/6
f 383/3/6 378/3/6 384/3/6
f 385/3/6 386/3/6 388/3/6
f 388/3/6 386/3/6 389/3/6
f 387/3/6 388/3/6 391/3/6
f 389/3/6 390/3/6 391/3/6
f 388/3/6 389/3/6 391/3/6
f 391/3/6 390/3/6 392/3/6
f 393/3/6 394/3/6 397/3/6
f 397/3/6 394/3/6 398/3/6
f 395/3/6 396/3/6 399/3/6
f 399/3/6 396/3/6 400/3/6
